FILE "Akuji the Heartless (1999)(Eidos)(M3)[SLES-01298] (Track 1 of 3).bin" BINARY
  TRACK 01 MODE2/2352
    INDEX 01 00:00:00
FILE "Akuji the Heartless (1999)(Eidos)(M3)[SLES-01298] (Track 2 of 3).bin" BINARY
  TRACK 02 AUDIO
    INDEX 00 00:00:00
    INDEX 01 00:02:00
FILE "Akuji the Heartless (1999)(Eidos)(M3)[SLES-01298] (Track 3 of 3).bin" BINARY
  TRACK 03 AUDIO
    INDEX 00 00:00:00
    INDEX 01 00:02:00
